<svg width="748" height="84" viewBox="0 0 748 84" fill="none" xmlns="http://www.w3.org/2000/svg">
<circle cx="234" cy="11" r="4" fill="white"/>
<circle cx="308" cy="15" r="4" fill="white"/>
<circle cx="279" cy="27" r="4" fill="white"/>
<circle cx="200" cy="47" r="4" fill="white"/>
<circle cx="166" cy="25" r="4" fill="white"/>
<circle cx="202" cy="27" r="4" fill="white"/>
<circle cx="90" cy="57" r="4" fill="white"/>
<circle cx="114" cy="65" r="4" fill="white"/>
<circle cx="145" cy="80" r="4" fill="white"/>
<circle cx="4" cy="47" r="4" fill="white"/>
<circle cx="60" cy="37" r="4" fill="white"/>
<circle cx="374" cy="33" r="4" fill="white"/>
<circle cx="454" cy="4" r="4" fill="white"/>
<circle cx="548" cy="22" r="4" fill="white"/>
<circle cx="481" cy="38" r="4" fill="white"/>
<circle cx="548" cy="55" r="4" fill="white"/>
<circle cx="607" cy="70" r="4" fill="white"/>
<circle cx="674" cy="43" r="4" fill="white"/>
<circle cx="744" cy="22" r="4" fill="white"/>
<circle cx="302" cy="55" r="4" fill="white"/>
</svg>
