<svg width="1074" height="268" viewBox="0 0 1074 268" fill="none" xmlns="http://www.w3.org/2000/svg">
<path d="M1071.5 12C1068.33 76.6667 1028.7 206.8 895.5 210C729 214 531 161 333.5 210C175.5 249.2 20 204.667 -38 177.5" stroke="white"/>
<path d="M1066.5 33C1063.33 97.6667 1023.7 227.8 890.5 231C724 235 526 182 328.5 231C170.5 270.2 15 225.667 -43 198.5" stroke="white"/>
<path d="M1063.5 43C1060.33 107.667 1020.7 237.8 887.5 241C721 245 523 192 325.5 241C167.5 280.2 12 235.667 -46 208.5" stroke="white"/>
<path d="M1061.5 54C1058.33 118.667 1018.7 248.8 885.5 252C719 256 521 203 323.5 252C165.5 291.2 10 246.667 -48 219.5" stroke="white"/>
<path d="M1068.5 23C1065.33 87.6667 1025.7 217.8 892.5 221C726 225 528 172 330.5 221C172.5 260.2 17 215.667 -41 188.5" stroke="white"/>
<path d="M1073.5 1C1070.33 65.6667 1030.7 195.8 897.5 199C731 203 533 150 335.5 199C177.5 238.2 22 193.667 -36 166.5" stroke="white"/>
</svg>
